<svg xmlns="http://www.w3.org/2000/svg" viewBox="0 0 64 64" role="img" aria-label="WhatsApp">
  <circle cx="32" cy="32" r="30" fill="#25D366"/>
  <path fill="#FFFFFF" d="M32 6C18.2 6 7 16.9 7 30.3c0 5.3 1.8 10.2 4.8 14.2L9 58l14.2-2.7c2.7 1.5 5.9 2.4 9.3 2.4c13.8 0 25-10.9 25-24.4C57.5 16.9 46.3 6 32 6Z"/>
  <path fill="#FFFFFF" d="M26.1 22.9c.8-1.4 1.7-1.4 2.4-1.4c.6 0 1.4 0 2 .1c.7.1 1.2.2 1.7 1.4c.6 1.4 1.9 4.8 2 5.2c.2.4.3.9 0 1.4c-.3.5-.5.8-.9 1.2c-.4.4-.8.8-1.1 1.1c-.4.4-.8.9-.3 1.7c.5.8 2.1 3.4 4.5 5.5c3.1 2.7 5.6 3.6 6.5 4c.9.4 1.4.3 1.9-.2c.6-.5 2.4-2.7 3-3.7c.6-.9 1.2-.7 2-.4c.8.3 5.1 2.4 6 2.8c.9.5 1.5.7 1.7 1.1c.2.4.2 2.4-.6 4.7c-.8 2.3-4.7 4.5-6.6 4.8c-1.9.3-4.3.5-7-.4c-1.6-.5-3.7-1.2-6.4-2.7c-9.3-5.1-15.3-14.2-15.8-14.9c-.5-.7-3.7-4.9-3.7-9.3c0-4.3 2.2-6.4 3-7.3Z"/>
</svg>
